<svg width="18" height="20" viewBox="0 0 18 20" fill="none" xmlns="http://www.w3.org/2000/svg">
<path d="M5 0C5.57292 0.0520833 5.88542 0.364583 5.9375 0.9375V2.5H11.5625V0.9375C11.6146 0.364583 11.9271 0.0520833 12.5 0C13.0729 0.0520833 13.3854 0.364583 13.4375 0.9375V2.5H15C15.7031 2.52604 16.2891 2.77344 16.7578 3.24219C17.2266 3.71094 17.474 4.29688 17.5 5V5.625V7.5V17.5C17.474 18.2031 17.2266 18.7891 16.7578 19.2578C16.2891 19.7266 15.7031 19.974 15 20H2.5C1.79688 19.974 1.21094 19.7266 0.742188 19.2578C0.273438 18.7891 0.0260417 18.2031 0 17.5V7.5V5.625V5C0.0260417 4.29688 0.273438 3.71094 0.742188 3.24219C1.21094 2.77344 1.79688 2.52604 2.5 2.5H4.0625V0.9375C4.11458 0.364583 4.42708 0.0520833 5 0ZM15.625 7.5H1.875V17.5C1.90104 17.8906 2.10938 18.099 2.5 18.125H15C15.3906 18.099 15.599 17.8906 15.625 17.5V7.5ZM12.8516 11.6016L8.47656 15.9766C8.03385 16.3411 7.59115 16.3411 7.14844 15.9766L4.64844 13.4766C4.28385 13.0339 4.28385 12.5911 4.64844 12.1484C5.09115 11.7839 5.53385 11.7839 5.97656 12.1484L7.8125 13.9844L11.5234 10.2734C11.9661 9.90885 12.4089 9.90885 12.8516 10.2734C13.2161 10.7161 13.2161 11.1589 12.8516 11.6016Z" fill="#1560F6"/>
</svg>
