<svg width="134" height="76" viewBox="0 0 134 76" fill="none" xmlns="http://www.w3.org/2000/svg">
<path d="M131.203 11.872C130.441 9.57308 128.945 7.47662 126.866 5.79241C124.788 4.1082 122.199 2.89532 119.359 2.27516C108.905 4.61651e-07 67 0 67 0C67 0 25.0951 -4.61651e-07 14.6413 2.26306C11.8001 2.88121 9.20988 4.09342 7.1308 5.77793C5.05172 7.46245 3.55697 9.55998 2.79665 11.8599C-5.70502e-07 20.3312 0 38 0 38C0 38 -5.70502e-07 55.6688 2.79665 64.128C4.33705 68.7994 8.88348 72.4783 14.6413 73.7248C25.0951 76 67 76 67 76C67 76 108.905 76 119.359 73.7248C125.131 72.4783 129.663 68.7994 131.203 64.128C134 55.6688 134 38 134 38C134 38 134 20.3312 131.203 11.872ZM53.6897 54.2166V21.7834L88.3862 37.879L53.6897 54.2166Z" fill="black"/>
</svg>
